<svg width="1149" height="737" xmlns="http://www.w3.org/2000/svg">
  <rect width="1149.6" height="737" fill="#111111" />
  <g class="moving-image">
    <rect y="73.5" width="4598.4" height="590" fill="#364d79" />
    <text x="50%" y="50%" dominant-baseline="middle" text-anchor="middle" font-size="75" fill="#fff">Item 1</text>
    <text x="150%" y="50%" dominant-baseline="middle" text-anchor="middle" font-size="75" fill="#fff">Item 2</text>
    <text x="250%" y="50%" dominant-baseline="middle" text-anchor="middle" font-size="75" fill="#fff">Item 3</text>
    <text x="350%" y="50%" dominant-baseline="middle" text-anchor="middle" font-size="75" fill="#fff">Item 1</text>
  </g>
  <g>
    <circle r="25" cx="47.5" cy="368.5" fill="#0007" />
    <path d="M9.4 233.4c-12.5 12.5-12.5 32.8 0 45.3l192 192c12.5 12.5 32.8 12.5 45.3 0s12.5-32.8 0-45.3L77.3 256 246.6 86.6c12.5-12.5 12.5-32.8 0-45.3s-32.8-12.5-45.3 0l-192 192z" fill="#FFFFFF" transform="translate(41.785, 357.15) scale(0.04462)"/>
  </g>
  <g>
    <circle r="25" cx="1101.5" cy="368.5" fill="#0007" />
    <path d="M310.6 233.4c12.5 12.5 12.5 32.8 0 45.3l-192 192c-12.5 12.5-32.8 12.5-45.3 0s-12.5-32.8 0-45.3L242.7 256 73.4 86.6c-12.5-12.5-12.5-32.8 0-45.3s32.8-12.5 45.3 0l192 192z" fill="#FFFFFF" transform="translate(1093.285, 357.15) scale(0.04462)"/>
  </g>
  <g>
    <circle class="dot-1" r="4.375" cx="547" cy="709.5" fill="#fffa" />
    <circle class="dot-2" r="4.375" cx="574.5" cy="709.5" fill="#fffa" />
    <circle class="dot-3" r="4.375" cx="602" cy="709.5" fill="#fffa" />
  </g>

  <style>
    text {      
      font-family: sans-serif;
    }
    .moving-image {
      animation: move 10.5s infinite linear;
    }
    .dot-1 {
      animation: active1 10.5s infinite linear;
    }
    .dot-2 {
      animation: active2 10.5s infinite linear;
    }
    .dot-3 {
      animation: active3 10.5s infinite linear;
    }
    @keyframes move {
      0% {
        transform: translate3D(0, 0, 0);
      }
      28.57% {
        transform: translate3D(0, 0, 0);
      }
      33.33% {
        transform: translate3D(-1149px, 0, 0);
      }
      61.9% {
        transform: translate3D(-1149px, 0, 0);
      }
      66.66% {
        transform: translate3D(-2298px, 0, 0);
      }
      95.23% {
        transform: translate3D(-2298px, 0, 0);
      }
      100% {
        transform: translate3D(-3447px, 0, 0);
      }
    }
    @keyframes active1 {
      0% {
        fill: #ffff;
      }
      28.57% {
        fill: #ffff;
      }
      28.58% {
        fill: #fffa;
      }
      95.23% {
        fill: #fffa;
      }
      95.24% {
        fill: #ffff;
      }
      100% {
        fill: #ffff;
      }
    }
    @keyframes active2 {
        28.57% {
          fill: #fffa;
        }
        28.58% {
          fill: #ffff;
        }
        61.9% {
          fill: #ffff;
        }
        62% {
          fill: #fffa;
        }
    }
    @keyframes active3 {     
        61.9% {
          fill: #fffa;
        }
        62% {
          fill: #ffff;
        }
        95.23% {
          fill: #ffff;
        }
        95.24% {
          fill: #fffa;
        }
    }
  </style>
</svg>